<?xml version="1.0" encoding="utf-8"?>
<!-- Generator: Adobe Illustrator 23.0.1, SVG Export Plug-In . SVG Version: 6.00 Build 0)  -->
<svg version="1.1" id="Capa_1" xmlns="http://www.w3.org/2000/svg" xmlns:xlink="http://www.w3.org/1999/xlink" x="0px" y="0px"
	 viewBox="0 0 194.12 194.12" style="enable-background:new 0 0 194.12 194.12;" xml:space="preserve">
<style type="text/css">
	.st0{opacity:0.8;fill:#CBE7E7;stroke:#CBE7E7;stroke-width:4.3111;stroke-miterlimit:10;}
	.st1{fill:#CBE3CB;}
	.st2{fill:#FF7993;}
</style>
<g>
	<circle class="st0" cx="97.8" cy="98" r="94.01"/>
	<g>
		<path class="st1" d="M90.09,132.88c-1.68-2.83-3.39-5.31-5.77-7.61c-3.89-3.76-8.79-6.45-12.81-10.04
			c0.8,1.95,2.11,3.96,2.87,5.64c1.41,3.12,2.95,6.17,5,8.93c3.6,4.84,7.91,9.66,14.37,9.99C93.16,137.41,91.29,134.91,90.09,132.88
			z"/>
		<path class="st1" d="M99.07,102.81c1.55-0.67,3.04-1.58,4.48-2.47c3.44-2.14,5.67-4.97,8.08-8.16c3.94-5.22,5.83-11.35,7.25-17.64
			c-2.22,1.09-4.51,2.86-6.43,4.18c-2.97,2.04-5.68,4.45-8.12,7.1c-4.87,5.29-7.41,11.54-9.58,18.27
			C96.15,104.05,98.09,103.23,99.07,102.81z"/>
		<path class="st1" d="M107.46,146.16c-3.11,1.25-6.32,2.43-9.14,4.26c-3.05,1.98-5.77,5-7.87,8.01c1.45,0.79,3.16,0.57,4.74,0.77
			c2.73,0.34,4.56-0.06,7.06-1.26c3.35-1.6,6.59-3.66,9.56-5.89c4.76-3.58,7.58-8.46,10.74-13.25
			C117.82,141.85,112.76,144.03,107.46,146.16z"/>
		<path class="st2" d="M78.98,34.61c0.34-0.39,0.74-0.71,1.17-0.99c-0.04-0.02-0.08-0.03-0.12-0.07c-1.22-1.02-1.76-2.95-3.48-3.12
			c-1.41-0.14-3.04,0.96-3.87,2.04c-1.21,1.56-0.68,3.35-0.01,5.01c0.37,0.93,1.19,3.47,2.54,3.37c0.42-0.03,0.59,0.28,0.57,0.61
			c0.78,0.01,1.61,0.17,2.45,0.45c0.81,0.28,1.59,0.63,2.36,1.01c-0.27-0.33-0.54-0.67-0.78-1.01C78.27,39.8,77,36.84,78.98,34.61z"
			/>
		<path class="st2" d="M83.47,32.6c-0.44-2.44-0.65-5.24,0.17-7.39c-0.29-0.19-0.57-0.4-0.89-0.62c-0.96-0.64-1.87-0.48-2.9-0.1
			c-2.23,0.82-2.75,2.62-2.26,4.82c1.47,0.58,2.07,2.28,3.38,3.38c0.15,0.12,0.2,0.27,0.2,0.4C81.89,32.8,82.67,32.63,83.47,32.6z"
			/>
		<path class="st2" d="M89.54,38.24c-0.96-1.85-2.06-3.41-4.11-4.04c-0.18-0.05-0.36-0.1-0.55-0.14c-0.25,0.4-0.96,0.43-1.13-0.12
			c-1.94-0.02-3.88,0.91-4.34,2.92c-0.56,2.46,1.71,4.91,3.34,6.55c1.76,1.78,3.49,2.47,5.51,3.24c0.06-0.04,0.13-0.07,0.19-0.09
			c1.36-0.45,2.61-0.09,3.94,0.32c0.05,0.02,0.11,0.03,0.16,0.05c-0.19-0.86-0.38-1.74-0.55-2.64
			C91.34,42.22,90.54,40.18,89.54,38.24z"/>
		<path class="st2" d="M83.59,45.91c-0.58-0.27-1.14-0.55-1.65-0.83c-1.44-0.79-2.95-1.7-4.55-2.11c-1.69-0.43-2.55-0.5-3.74,0.8
			c-1.05,1.15-1.28,1.85-1.09,3.4c0.63,4.98,7.57,4.97,11.25,4.33c1.65-0.29,3.27-0.77,4.88-1.27c-0.73-0.54-1.32-1.19-1.51-1.99
			c-0.04-0.19,0-0.36,0.11-0.5c-1.27-0.41-2.47-0.84-3.65-1.79C83.62,45.93,83.61,45.92,83.59,45.91z"/>
		<path class="st2" d="M111.34,41.13c-0.04-0.14-0.08-0.28-0.12-0.42c-0.19-0.03-0.39-0.06-0.59-0.08
			c-1.94-0.13-4.22,0.98-5.84,1.91c-0.35,0.2-0.69,0.42-1.03,0.64c-1.38,2.62-3.35,4.97-5.85,6.26c-0.21,0.42-0.41,0.86-0.57,1.3
			c0,0.03-0.01,0.06-0.01,0.09c0.01,0.01,0.01,0.01,0.02,0.01c2.17,2.06,6.93,2.48,9.63,1.74c2.78-0.76,5.63-2.68,7.22-5.09
			c1.52-2.3,0.67-5-1.42-6.21c-0.17,0.09-0.34,0.19-0.52,0.27C111.86,41.73,111.46,41.55,111.34,41.13z"/>
		<path class="st2" d="M114.02,40.43c1.46,0.77,2.53,2.06,2.6,3.94c0.03,0.92-0.18,1.8-0.56,2.63c0.02,0.03,0.05,0.05,0.07,0.09
			c-0.09-0.19,1.22-0.49,1.43-0.54c1.1-0.27,1.79-0.36,2.75-1.06c1.16-0.86,2.21-1.95,2.37-3.46c0.42-3.97-3.45-5.03-6.51-4.27
			c-0.01,0-0.02,0-0.04,0C115.58,38.79,114.88,39.7,114.02,40.43z"/>
		<path class="st2" d="M84.76,32.66c1.25,0.17,2.44,0.67,3.38,1.47c1.34,1.15,2.39,2.73,3.24,4.5c0.01-2.34,0.46-4.62,1.73-6.62
			c0.35-0.56,0.81-1.09,1.33-1.57c0.36-1.6-0.78-4-1.59-5.39c-1.07-1.86-3.12-2.46-5.13-1.96c-1.18,0.3-1.99,0.89-2.53,1.66
			c0.17,0.38-0.05,0.89-0.48,0.92C83.9,27.71,84.3,30.47,84.76,32.66z"/>
		<path class="st2" d="M102.77,42.27c0.38-0.75,0.71-1.51,0.98-2.25c1.26-3.5,1.8-9.68-3.12-10.71c-4.47-0.93-7.41,4.21-7.84,7.77
			c-0.24,2.01-0.06,4.03,0.28,6.02c0.46,1.52,0.82,3.01,1.14,4.36c0.5,0.18,0.99,0.39,1.45,0.66c0.36,0.22,0.73,0.54,1.04,0.93
			C98.02,46.33,100.2,44,102.77,42.27z"/>
		<path class="st2" d="M105.54,38.44c-0.21,0.89-0.5,1.79-0.86,2.7c0.97-0.5,1.97-0.93,2.99-1.25c1.44-0.46,3.31-0.49,4.97-0.01
			c2.71-1.88,4.02-6,3.34-9.05c-0.62-2.79-3.13-4.34-5.82-3.15c-2.12,0.94-3.27,2.62-4.42,4.53c-0.06,0.1-0.14,0.17-0.22,0.21
			C106.05,34.42,105.96,36.72,105.54,38.44z"/>
		<path class="st2" d="M102.41,28.41c1.21,0.51,2.04,1.45,2.59,2.59c0.1-0.16,0.2-0.32,0.31-0.48c-0.12-0.23-0.13-0.51,0.1-0.74
			c0.91-0.93,0.16-3.76-0.14-4.85c-0.46-1.64-1.23-3.49-3.09-3.83c-4.11-0.77-7.05,4.32-5.42,7.77
			C98.55,27.97,100.62,27.65,102.41,28.41z"/>
		<polygon class="st2" points="87.28,47.74 87.28,47.74 87.28,47.74 		"/>
		<g>
			<path d="M73.26,176.28c4.39-1.32,8.25-5.43,11.09-8.88c2.91-3.54,5.3-7.56,6.98-11.83c3.98-10.12,4.1-21.96,3.97-32.68
				c-0.15-12.19-1.51-24.19-2.45-36.33c-0.47-6.1-0.93-12.22-1.12-18.34c-0.18-5.93-0.41-12.1,0.78-17.94
				c0.16-0.79-1.04-1.19-1.2-0.39c-2.08,10.26-0.76,21.34-0.06,31.69c0.76,11.28,2.29,22.5,2.65,33.8
				c0.35,11.22,0.57,22.89-1.95,33.9c-1.15,5.01-3.24,9.71-6.1,13.98c-2.91,4.34-7.65,10.2-12.85,11.77
				C72.21,175.28,72.48,176.52,73.26,176.28L73.26,176.28z"/>
		</g>
		<g>
			<path d="M88.89,47.83c-0.36-0.18-0.54-0.26-0.92-0.38c-0.45-0.14-0.92,0.26-0.81,0.74c0.43,1.81,2.89,2.95,4.49,3.39
				c1.4,0.39,3.67,1.17,5,0.22c1.53-1.09,0.17-3-1.01-3.71c-1-0.61-2.15-0.9-3.26-1.24c-1.33-0.41-2.58-0.77-3.94-0.32
				c-0.25,0.08-0.5,0.29-0.5,0.59c0.04,1.64,1.19,2.3,2.55,2.94c0.87,0.41,2.44,1.33,3.27,0.35c1.84-2.18-4.76-2.96-5.48-3.02
				c-0.45-0.04-0.69,0.38-0.65,0.77c0.25,2.38,5.4,3.94,7.28,3.39c0.26-0.08,0.49-0.3,0.5-0.59c0.01-1.43-1.26-2.11-2.37-2.75
				c-1.35-0.78-2.71-1.42-4.3-1.27c-0.33,0.03-0.56,0.46-0.48,0.75c0.65,2.44,5.34,4.04,7.56,3.36c0.36-0.11,0.52-0.39,0.48-0.75
				c-0.28-2.72-5.12-2.75-3.54-0.22c0.43,0.69,1.55,0.1,1.12-0.59c-0.26-0.31-0.24-0.36,0.06-0.15c0.52,0.23,0.9,0.65,1.12,1.24
				c0.16-0.25,0.32-0.5,0.48-0.75c-1.47,0.45-5.6-0.7-6.05-2.4c-0.16,0.25-0.32,0.5-0.48,0.75c0.99-0.09,5.14,1.25,5.13,2.72
				c0.17-0.2,0.33-0.39,0.5-0.59c-1.25,0.36-5.61-0.85-5.77-2.43c-0.22,0.26-0.43,0.51-0.65,0.77c1.55,0.13,2.8,0.42,4.21,0.99
				c0.44,0.18,0.36,0.1-0.03-0.13c-0.31-0.18-0.74-0.29-1.08-0.44c-0.8-0.37-2.09-0.79-2.12-1.88c-0.17,0.2-0.33,0.39-0.5,0.59
				c1.5-0.5,3.21,0.23,4.66,0.7c0.69,0.23,1.47,0.49,2.01,0.99c0.84,0.77,0.57,1.49-0.55,1.47c-1.02-0.02-2.07-0.34-3.04-0.62
				c-1.01-0.29-3.12-1.18-3.41-2.39c-0.27,0.25-0.54,0.49-0.81,0.74c0.21,0.08,0.42,0.16,0.63,0.24
				C88.93,49.25,89.62,48.19,88.89,47.83L88.89,47.83z"/>
		</g>
		<g>
			<path d="M89.87,47.26c-2.77-1.14-4.93-1.65-7.14-3.88c-1.62-1.64-3.89-4.09-3.34-6.55c0.59-2.62,3.68-3.4,6.02-2.67
				c2.06,0.63,3.15,2.18,4.11,4.04c1.58,3.06,2.68,6.34,3.47,9.68c0.19,0.79,1.42,0.52,1.24-0.27c-1.03-4.36-2.55-10.47-6.11-13.51
				c-2.52-2.16-6.88-2.09-9.16,0.47c-1.98,2.24-0.71,5.19,0.81,7.29c1.08,1.5,2.4,2.89,3.84,4.04c1.85,1.49,3.75,1.7,5.88,2.57
				C90.24,48.78,90.62,47.57,89.87,47.26L89.87,47.26z"/>
		</g>
		<g>
			<path d="M93.94,47.42c-0.75-3.38-1.6-6.9-1.18-10.38c0.43-3.56,3.37-8.7,7.84-7.77c4.93,1.03,4.38,7.21,3.12,10.71
				c-1.14,3.17-3.36,6.72-6.46,8.3c-0.72,0.37-0.13,1.49,0.59,1.12c3.98-2.04,6.65-6.8,7.66-11.01c0.78-3.23,0.47-8.5-3.13-10.03
				c-3.28-1.4-7.54,0.82-9.3,3.6c-2.94,4.63-1.48,10.75-0.38,15.72C92.88,48.49,94.12,48.21,93.94,47.42L93.94,47.42z"/>
		</g>
		<g>
			<path d="M97.3,50.71c1.31-3.54,4.23-6.36,7.46-8.22c1.62-0.93,3.9-2.03,5.84-1.91c3.53,0.23,5.53,3.88,3.57,6.86
				c-1.59,2.41-4.45,4.34-7.22,5.09c-2.69,0.73-7.45,0.31-9.63-1.74c-0.59-0.56-1.52,0.3-0.93,0.86c2.88,2.72,8.59,3.07,12.1,1.67
				c3.4-1.35,8.25-4.8,8.1-9c-0.15-4.35-5.66-5.53-8.95-4.49c-5.01,1.59-9.71,5.5-11.55,10.48C95.81,51.09,97.02,51.48,97.3,50.71
				L97.3,50.71z"/>
		</g>
		<g>
			<path d="M90.64,48.56c-1.56-1.49-3.55-2.17-5.44-3.16c-2.31-1.2-4.53-2.7-7.01-3.55c-3.21-1.1-6.33-0.31-6.89,3.37
				c-0.62,4.07,1.94,6.59,5.74,7.42c5.54,1.21,10.6-1.1,15.89-2.38c0.79-0.19,0.52-1.43-0.27-1.24c-2.97,0.72-5.85,1.89-8.87,2.42
				c-3.68,0.65-10.62,0.65-11.25-4.33c-0.19-1.54,0.04-2.25,1.09-3.4c1.19-1.3,2.04-1.23,3.74-0.8c1.6,0.41,3.11,1.33,4.55,2.11
				c2.45,1.33,5.78,2.46,7.79,4.38C90.3,49.98,91.23,49.13,90.64,48.56L90.64,48.56z"/>
		</g>
		<g>
			<path d="M84.94,33.57c-0.77-3.49-1.95-9.34,2.75-10.52c2.01-0.51,4.06,0.1,5.13,1.96c0.81,1.4,1.95,3.81,1.59,5.4
				c-0.18,0.79,1.02,1.18,1.2,0.39c0.47-2.08-0.8-5.18-1.98-6.89c-1.22-1.76-3.23-2.49-5.31-2.24c-6.29,0.74-5.64,7.56-4.62,12.18
				C83.88,34.64,85.12,34.37,84.94,33.57L84.94,33.57z"/>
		</g>
		<g>
			<path d="M75.18,40.8c-1.35,0.11-2.17-2.44-2.54-3.37c-0.66-1.66-1.19-3.45,0.01-5.01c0.83-1.07,2.47-2.17,3.87-2.04
				c1.73,0.17,2.26,2.1,3.48,3.12c0.62,0.52,1.55-0.34,0.93-0.86c-1.66-1.39-2.17-3.75-4.76-3.58c-1.84,0.12-3.91,1.47-4.88,3.03
				c-1.06,1.69-0.64,3.65,0.01,5.4c0.59,1.59,1.68,4.73,3.8,4.56C75.91,42,75.99,40.73,75.18,40.8L75.18,40.8z"/>
		</g>
		<g>
			<path d="M105.72,32.16c1.15-1.91,2.3-3.59,4.42-4.53c2.7-1.19,5.21,0.36,5.82,3.15c0.75,3.4-0.95,8.13-4.32,9.61
				c0.3,0.14,0.61,0.28,0.91,0.42c-0.04-0.15-0.09-0.3-0.13-0.45c-0.23-0.78-1.46-0.51-1.24,0.27c0.04,0.15,0.09,0.3,0.13,0.45
				c0.12,0.41,0.52,0.6,0.91,0.42c4.64-2.03,6.42-8.88,4.17-13.14c-1.07-2.02-2.97-2.83-5.22-2.41c-3.18,0.59-4.98,2.94-6.53,5.52
				C104.23,32.18,105.3,32.86,105.72,32.16L105.72,32.16z"/>
		</g>
		<g>
			<path d="M96.73,28.81c-1.63-3.45,1.31-8.54,5.42-7.77c1.86,0.35,2.63,2.2,3.09,3.83c0.31,1.1,1.05,3.92,0.14,4.85
				c-0.57,0.58,0.29,1.51,0.86,0.93c1.5-1.53,0.62-5.02,0-6.83c-0.64-1.88-1.81-3.74-3.93-4.07c-5.14-0.81-8.77,5.28-6.7,9.64
				C95.96,30.14,97.08,29.55,96.73,28.81L96.73,28.81z"/>
		</g>
		<g>
			<path d="M77.56,29.26c-0.49-2.2,0.03-4,2.26-4.82c1.03-0.38,1.94-0.55,2.9,0.1c0.59,0.4,1.03,0.79,1.71,1.04
				c0.76,0.29,1.15-0.92,0.39-1.2c-1.11-0.42-1.79-1.47-3.04-1.59c-1.15-0.11-2.47,0.39-3.46,0.92c-2.18,1.15-2.48,3.63-1.99,5.83
				C76.5,30.33,77.73,30.06,77.56,29.26L77.56,29.26z"/>
		</g>
		<g>
			<path d="M116.14,37.72c3.06-0.76,6.93,0.29,6.51,4.27c-0.16,1.5-1.21,2.6-2.37,3.46c-0.96,0.71-1.65,0.8-2.75,1.06
				c-0.21,0.05-1.51,0.35-1.43,0.54c-0.33-0.74-1.45-0.15-1.12,0.59c0.03,0.06,0.06,0.12,0.08,0.19c0.08,0.18,0.32,0.35,0.53,0.34
				c3.72-0.2,8.39-2.4,8.33-6.72c-0.02-1.78-1-3.68-2.55-4.59c-1.81-1.07-3.59-0.85-5.52-0.37
				C115.08,36.68,115.35,37.91,116.14,37.72L116.14,37.72z"/>
		</g>
		<g>
			<path d="M93.77,49.66c1.53-1.96,2.23-4.6,2.94-6.95c0.43-1.43,0.75-2.91,1.06-4.37c0.28-1.31,0.19-2.52,0.15-3.84
				c-0.01-0.41-0.64-0.44-0.63-0.03c0.04,1.48,0.07,2.75-0.25,4.2c-0.28,1.29-0.56,2.59-0.94,3.86c-0.69,2.29-1.38,4.9-2.87,6.8
				C92.99,49.64,93.52,49.98,93.77,49.66L93.77,49.66z"/>
		</g>
		<g>
			<path d="M94.43,49.6c2.91,0.37,5.24,0.07,7.87-1.25c1.41-0.71,2.82-1.39,4.24-2.07c1.23-0.59,2.24-1.51,3.43-2.1
				c0.37-0.18,0.07-0.74-0.3-0.56c-1.03,0.5-1.85,1.32-2.89,1.83c-1.25,0.62-2.53,1.17-3.77,1.81c-1.33,0.68-2.66,1.43-4.15,1.74
				c-1.47,0.3-2.95,0.15-4.42-0.04C94.06,48.92,94.03,49.55,94.43,49.6L94.43,49.6z"/>
		</g>
		<g>
			<path d="M84.93,39.02c0.34,1.29,1.53,2.43,2.34,3.45c1.05,1.32,2.16,2.66,3.37,3.84c0.94,0.91,2.01,1.69,3.15,2.34
				c0.55,0.32,1.13,0.61,1.74,0.81c0.14,0.05,1.67,0.27,1.68,0.29c0.16,0.37,0.72,0.08,0.56-0.3c-0.03-0.06-0.05-0.12-0.08-0.18
				c-0.04-0.1-0.16-0.17-0.26-0.17c-2.53-0.01-4.99-1.85-6.69-3.6c-0.85-0.88-1.65-1.82-2.43-2.76c-0.88-1.06-2.4-2.52-2.76-3.87
				C85.44,38.49,84.82,38.62,84.93,39.02L84.93,39.02z"/>
		</g>
		<g>
			<path d="M78.08,48.73c3.06,0.96,5.5,2.29,8.79,1.86c3.4-0.45,6.78-0.66,9.98-2.02c0.37-0.16,0.08-0.72-0.3-0.56
				c-3,1.28-6.11,1.43-9.29,1.89c-1.73,0.25-3.3,0.27-4.97-0.28c-1.36-0.45-2.66-1.06-4.02-1.49C77.88,48,77.69,48.61,78.08,48.73
				L78.08,48.73z"/>
		</g>
		<g>
			<path d="M93.56,104.09c0.03,0.05,0.06,0.1,0.09,0.15c0.27,0.46,0.99,0.44,1.16-0.1c2.19-6.86,4.74-13.23,9.7-18.62
				c2.44-2.65,5.14-5.06,8.12-7.1c2.27-1.55,5.04-3.74,7.61-4.69c-0.3-0.25-0.6-0.5-0.9-0.75c-1.46,6.74-3.32,13.34-7.53,18.91
				c-2.41,3.19-4.64,6.03-8.08,8.16c-1.44,0.89-2.93,1.79-4.48,2.47c-1.16,0.5-3.72,1.59-5.07,1.2c-0.78-0.22-1.17,0.98-0.39,1.2
				c2.49,0.71,5.96-1.17,8.07-2.32c3.4-1.85,6.27-3.94,8.69-6.97c5.42-6.77,8.16-13.82,9.99-22.27c0.12-0.58-0.37-0.95-0.9-0.75
				c-2.86,1.06-5.98,3.51-8.47,5.3c-3.02,2.16-5.77,4.68-8.23,7.47c-4.73,5.37-7.19,11.67-9.34,18.38c0.39-0.03,0.77-0.07,1.16-0.1
				c-0.03-0.05-0.06-0.1-0.09-0.15C94.26,102.8,93.14,103.39,93.56,104.09L93.56,104.09z"/>
		</g>
		<g>
			<path d="M95.6,104.09c3.17-1.67,5.2-4.51,7.76-6.93c2.43-2.29,5.46-4.34,7.49-7.02c1.79-2.36,3.22-5.23,4.57-7.85
				c0.67-1.3,1.02-2.71,1.55-4.05c0.76-1.93,2.31-3.58,3.46-5.28c0.46-0.68-0.61-1.36-1.07-0.68c-1.59,2.36-3.06,4.28-4.01,6.96
				c-1.09,3.09-2.97,6.06-4.69,8.82c-1.75,2.81-4.55,4.97-7.02,7.15c-2.9,2.56-5.15,5.93-8.63,7.77
				C94.28,103.35,94.87,104.47,95.6,104.09L95.6,104.09z"/>
		</g>
		<g>
			<path d="M94.27,139.5c-6.66-0.17-11.05-5.09-14.72-10.01c-2.05-2.75-3.58-5.81-5-8.93c-1.06-2.33-3.19-5.32-3.52-7.86
				c-0.36,0.19-0.72,0.38-1.08,0.57c4.28,4.48,10.07,7.39,14.54,11.71c2.39,2.3,4.09,4.78,5.77,7.61c1.28,2.16,3.33,4.85,3.77,7.35
				c0.14,0.8,1.38,0.53,1.24-0.27c-0.4-2.26-1.95-4.48-3.12-6.44c-1.63-2.73-3.06-5.3-5.26-7.61c-4.78-5.05-11.25-8.22-16.01-13.2
				c-0.46-0.48-1.16-0.04-1.08,0.57c0.36,2.84,2.68,6.11,3.87,8.71c1.57,3.42,3.37,6.6,5.67,9.58c3.75,4.86,8.28,9.34,14.86,9.5
				C95.02,140.79,95.08,139.53,94.27,139.5L94.27,139.5z"/>
		</g>
		<g>
			<path d="M95.21,139.3c-2.45,0.15-6.06-3.45-7.65-4.95c-1.64-1.54-3.28-3.12-4.76-4.81c-3.37-3.83-7.55-7.8-10.07-12.28
				c-0.4-0.71-1.52-0.12-1.12,0.59c1.39,2.48,3.5,4.66,5.35,6.82c2.07,2.41,3.99,4.98,6.23,7.22c1.89,1.88,3.8,3.76,5.91,5.39
				c1.59,1.23,3.88,3.43,6.04,3.29C95.95,140.51,96.02,139.25,95.21,139.3L95.21,139.3z"/>
		</g>
		<g>
			<path d="M90.16,158.81c2.15-3.22,5.07-6.56,8.34-8.68c2.83-1.84,6.03-3.01,9.14-4.26c6.38-2.57,12.42-5.18,17.94-9.31
				c-0.32-0.27-0.64-0.54-0.96-0.8c-4.04,5.62-6.96,11.75-12.64,16.02c-2.96,2.23-6.21,4.28-9.56,5.89c-2.5,1.2-4.33,1.6-7.06,1.26
				c-1.63-0.21-3.4,0.05-4.87-0.84c-0.7-0.42-1.38,0.65-0.68,1.07c1.35,0.81,2.5,0.79,4.06,0.9c1.6,0.11,3,0.62,4.62,0.39
				c4.15-0.58,8.33-3.61,11.73-5.88c3.21-2.14,6.18-4.56,8.52-7.65c2.55-3.35,4.49-7.06,6.94-10.48c0.45-0.63-0.43-1.21-0.96-0.8
				c-6.28,4.7-13.42,7.33-20.63,10.31c-6.27,2.59-11.2,6.51-15,12.19C88.64,158.81,89.71,159.49,90.16,158.81L90.16,158.81z"/>
		</g>
		<g>
			<path d="M89.84,158.33c6.39-1.89,13.22-4.12,19.07-7.35c5.24-2.89,9.82-7.45,14.55-11.06c0.65-0.49-0.22-1.42-0.86-0.93
				c-4.65,3.54-9.16,8-14.28,10.87c-5.74,3.21-12.48,5.37-18.75,7.23C88.79,157.33,89.06,158.56,89.84,158.33L89.84,158.33z"/>
		</g>
	</g>
</g>
</svg>
